<svg width="166" height="60" viewBox="0 0 166 60" fill="none" xmlns="http://www.w3.org/2000/svg">
<path fill-rule="evenodd" clip-rule="evenodd" d="M159.148 47.5513H162.736C162.736 45.8644 162.288 44.716 161.122 44.716C159.938 44.716 159.292 45.9004 159.148 47.5513ZM164.96 47.8026V48.2151H159.111C159.039 50.727 160.331 52.2165 162.089 52.2165C163.309 52.2165 164.116 51.696 164.763 50.763L165.049 50.9241C164.583 52.7004 163.273 53.9202 161.21 53.9202C158.608 53.9202 156.868 52.0008 156.868 49.2378C156.868 46.17 158.841 44.0526 161.3 44.0526C163.704 44.0526 164.96 45.6495 164.96 47.8026ZM153.461 52.1445C154.592 52.1445 155.381 51.696 155.973 50.817L156.278 50.9961C155.722 52.9518 154.394 53.9202 152.564 53.9202C150.16 53.9202 148.384 52.1265 148.384 49.3095C148.384 46.3131 150.196 44.0526 153.031 44.0526C154.789 44.0526 156.009 44.7705 156.009 46.152C156.009 46.7262 155.704 47.1744 155.327 47.3541H153.964C154 47.0667 154.035 46.7976 154.035 46.4754C154.035 45.5241 153.731 44.7345 152.726 44.7345C151.362 44.7345 150.573 46.2777 150.573 48.2691C150.573 50.6193 151.649 52.1445 153.461 52.1445ZM144.192 47.121C144.192 46.0797 143.796 45.5598 142.81 45.5598C142.056 45.5598 141.375 45.9006 140.8 46.2957V52.3596C140.8 52.9872 141.069 53.0955 141.895 53.1489V53.7411H137.194V53.1489C138.037 53.0955 138.324 52.9872 138.324 52.3596V46.0089L137.248 45.3807V45.0399L140.46 44.0526H140.872L140.8 45.8109C141.572 44.9142 142.595 44.0526 144.12 44.0526C145.806 44.0526 146.685 45.0219 146.685 46.9773V52.3596C146.685 52.9872 146.973 53.0955 147.798 53.1489V53.7411H143.097V53.1489C143.923 53.0955 144.192 52.9872 144.192 52.3596V47.121ZM130.632 47.5513H134.219C134.219 45.8644 133.771 44.716 132.605 44.716C131.42 44.716 130.775 45.9004 130.632 47.5513ZM136.436 47.8026V48.2151H130.588C130.516 50.727 131.807 52.2165 133.566 52.2165C134.786 52.2165 135.593 51.696 136.239 50.763L136.526 50.9241C136.06 52.7004 134.75 53.9202 132.687 53.9202C130.086 53.9202 128.345 52.0008 128.345 49.2378C128.345 46.17 130.319 44.0526 132.776 44.0526C135.181 44.0526 136.436 45.6495 136.436 47.8026ZM124.567 47.336C124.567 45.9005 124.083 44.6627 123.043 44.6627C122.038 44.6627 121.625 45.6494 121.625 47.0486C121.625 48.5204 122.128 49.7576 123.186 49.7576C124.173 49.7576 124.567 48.7718 124.567 47.336ZM120.623 54.028C120.389 54.2968 120.282 54.6559 120.282 55.0864C120.282 56.2885 121.34 57.0418 123.027 57.0418C124.785 57.0418 126.364 56.4499 126.364 55.1044C126.364 54.3151 125.826 54.028 124.946 54.028H120.623ZM121.26 50.0631C120.92 50.3859 120.651 50.763 120.651 51.1392C120.651 51.5166 120.884 51.75 121.278 51.75H124.974C127.056 51.75 128.133 52.6287 128.133 54.2076C128.133 56.4681 125.871 57.7242 122.893 57.7242C120.274 57.7242 118.642 56.9346 118.642 55.4814C118.642 54.5664 119.467 54.0639 120.327 53.7951C119.629 53.526 119.215 52.8981 119.215 52.1625C119.215 51.1038 120.059 50.4219 120.884 49.902C119.933 49.4355 119.233 48.6096 119.233 47.3361C119.233 45.273 120.902 44.0526 123.144 44.0526C123.808 44.0526 124.293 44.1786 124.741 44.304L127.773 44.2323V45.273H127.038L125.782 45.219C126.41 45.6315 126.912 46.3851 126.912 47.2821C126.912 49.1841 125.316 50.3505 123.074 50.3505C122.445 50.3505 121.817 50.2602 121.26 50.0631ZM114.54 41.5589C114.54 40.7876 115.132 40.1414 115.993 40.1414C116.873 40.1414 117.465 40.7876 117.465 41.5589C117.465 42.3128 116.873 42.9764 115.993 42.9764C115.132 42.9764 114.54 42.3128 114.54 41.5589ZM117.262 52.3596C117.262 52.9872 117.549 53.0955 118.392 53.1489V53.7411H113.656V53.1489C114.499 53.0955 114.786 52.9872 114.786 52.3596V46.0089L113.709 45.3807V45.0399L116.868 44.0526H117.262V52.3596ZM111.901 52.3594C111.901 52.987 112.189 53.0953 113.014 53.1487V53.7409H108.296V53.1487C109.12 53.0953 109.408 52.987 109.408 52.3594V41.4868L108.332 40.9312V40.5541L111.507 39.6928H111.901V52.3594ZM106.576 52.3594C106.576 52.987 106.862 53.0953 107.688 53.1487V53.7409H102.969V53.1487C103.795 53.0953 104.081 52.987 104.081 52.3594V41.4868L103.005 40.9312V40.5541L106.18 39.6928H106.576V52.3594ZM96.4766 47.5513H100.065C100.065 45.8644 99.6161 44.716 98.4497 44.716C97.2656 44.716 96.62 45.9004 96.4766 47.5513ZM102.288 47.8026V48.2151H96.4398C96.3678 50.727 97.6593 52.2165 99.4182 52.2165C100.637 52.2165 101.445 51.696 102.091 50.763L102.378 50.9241C101.912 52.7004 100.602 53.9202 98.5392 53.9202C95.9373 53.9202 94.1964 52.0008 94.1964 49.2378C94.1964 46.17 96.1707 44.0526 98.6283 44.0526C101.033 44.0526 102.288 45.6495 102.288 47.8026ZM91.0588 44.2321H93.3913V45.0577H91.0588V50.9959C91.0588 52.0903 91.4722 52.5565 92.3152 52.5565C92.8177 52.5565 93.2122 52.3954 93.6604 52.054L93.8758 52.3774C93.3022 53.2744 92.4052 53.92 91.1128 53.92C89.6422 53.92 88.5652 53.1487 88.5652 51.139V45.0577H87.4531V44.6446C88.6912 44.0884 89.7493 43.084 90.5212 41.8996H91.0588V44.2321ZM83.6149 47.121C83.6149 46.0797 83.2204 45.5598 82.2334 45.5598C81.4795 45.5598 80.7979 45.9006 80.2243 46.2957V52.3596C80.2243 52.9872 80.4934 53.0955 81.3184 53.1489V53.7411H76.6183V53.1489C77.4613 53.0955 77.7484 52.9872 77.7484 52.3596V46.0089L76.6714 45.3807V45.0399L79.8829 44.0526H80.2963L80.2243 45.8109C80.9962 44.9142 82.0183 44.0526 83.5429 44.0526C85.2295 44.0526 86.1085 45.0219 86.1085 46.9773V52.3596C86.1085 52.9872 86.3959 53.0955 87.2209 53.1489V53.7411H82.5208V53.1489C83.3455 53.0955 83.6149 52.9872 83.6149 52.3596V47.121ZM74.3222 51.8749C74.3222 52.8619 74.5016 52.969 75.758 53.1133V53.7409H70.25V53.1133C71.5055 52.969 71.6846 52.8619 71.6846 51.8749V43.0123C71.6846 42.0253 71.5055 41.9176 70.25 41.7739V41.1463H75.758V41.7739C74.5016 41.9176 74.3222 42.0253 74.3222 43.0123V51.8749ZM139.812 29.6133H143.4C143.4 27.927 142.952 26.7786 141.786 26.7786C140.601 26.7786 139.956 27.963 139.812 29.6133ZM145.624 29.8643V30.2774H139.776C139.703 32.789 140.995 34.2782 142.754 34.2782C143.973 34.2782 144.781 33.758 145.427 32.825L145.714 32.9867C145.247 34.7627 143.938 35.9828 141.875 35.9828C139.273 35.9828 137.532 34.0628 137.532 31.2998C137.532 28.232 139.506 26.1152 141.964 26.1152C144.368 26.1152 145.624 27.7121 145.624 29.8643ZM133.336 29.165C133.336 28.1423 132.978 27.6221 132.045 27.6221C131.327 27.6221 130.752 27.9632 130.197 28.3757V34.4219C130.197 35.0498 130.43 35.1569 131.255 35.2109V35.8031H126.626V35.2109C127.47 35.1569 127.703 35.0498 127.703 34.4219V29.165C127.703 28.1423 127.344 27.6221 126.411 27.6221C125.693 27.6221 125.119 27.9632 124.545 28.3577V34.4219C124.545 35.0498 124.796 35.1569 125.622 35.2109V35.8031H120.939V35.2109C121.782 35.1569 122.069 35.0498 122.069 34.4219V28.0703L120.993 27.4427V27.1019L124.204 26.1152H124.617L124.545 27.8912C125.299 26.9222 126.25 26.1152 127.756 26.1152C129.067 26.1152 129.855 26.6708 130.089 27.9272C130.843 26.9762 131.882 26.1152 133.372 26.1152C135.023 26.1152 135.83 27.1019 135.83 29.0033V34.4219C135.83 35.0498 136.117 35.1569 136.942 35.2109V35.8031H132.278V35.2109C133.103 35.1569 133.336 35.0498 133.336 34.4219V29.165ZM116.439 23.6209C116.439 22.8496 117.03 22.204 117.891 22.204C118.771 22.204 119.363 22.8496 119.363 23.6209C119.363 24.3742 118.771 25.0384 117.891 25.0384C117.03 25.0384 116.439 24.3742 116.439 23.6209ZM119.167 34.4219C119.167 35.0498 119.454 35.1569 120.298 35.2109V35.8031H115.561V35.2109C116.404 35.1569 116.692 35.0498 116.692 34.4219V28.0703L115.614 27.4427V27.1019L118.773 26.1152H119.167V34.4219ZM112.371 26.2945H114.703V27.1192H112.371V33.0583C112.371 34.153 112.783 34.6192 113.626 34.6192C114.129 34.6192 114.524 34.4572 114.972 34.1167L115.188 34.4398C114.613 35.3365 113.716 35.9827 112.425 35.9827C110.953 35.9827 109.877 35.2108 109.877 33.2017V27.1192H108.765V26.7067C110.002 26.1508 111.061 25.1461 111.832 23.9617H112.371V26.2945ZM104.603 23.6209C104.603 22.8496 105.195 22.204 106.056 22.204C106.935 22.204 107.528 22.8496 107.528 23.6209C107.528 24.3742 106.935 25.0384 106.056 25.0384C105.195 25.0384 104.603 24.3742 104.603 23.6209ZM107.331 34.4219C107.331 35.0498 107.619 35.1569 108.462 35.2109V35.8031H103.725V35.2109C104.568 35.1569 104.856 35.0498 104.856 34.4219V28.0703L103.779 27.4427V27.1019L106.937 26.1152H107.331V34.4219ZM99.9584 34.2782C99.9584 35.0138 100.371 35.1215 101.483 35.2109V35.8031H96.3527V35.2109C97.1957 35.1569 97.4828 35.0498 97.4828 34.4219V28.0703L96.4058 27.4427V27.1019L99.6173 26.1152H100.031L99.9584 28.7702C100.819 26.8151 101.358 26.1152 102.416 26.1152C102.793 26.1152 103.062 26.2403 103.206 26.4197V28.3577H102.865C101.752 28.3577 100.874 28.4117 99.9584 29.3267V34.2782ZM92.1544 33.973V30.6181L90.6118 31.2457C89.8582 31.5331 89.3917 31.9456 89.3917 32.9506C89.3917 33.8836 89.8222 34.5472 90.7732 34.5472C91.2937 34.5472 91.6519 34.3501 92.1544 33.973ZM94.6278 33.8114C94.6278 34.4219 94.7538 34.8167 95.2203 34.8167C95.4888 34.8167 95.7399 34.7267 95.9373 34.637L96.0453 35.0318C95.5248 35.6414 94.8429 35.9828 94.0002 35.9828C93.0309 35.9828 92.3853 35.3903 92.2062 34.4036C91.6314 35.1569 90.6984 35.9468 89.4072 35.9468C87.9534 35.9468 86.9844 35.0678 86.9844 33.6323C86.9844 32.0897 88.0977 31.4615 89.4432 30.959L92.1519 29.9726V28.4474C92.1519 27.4247 91.8108 26.6888 90.8787 26.6888C90.0168 26.6888 89.6766 27.335 89.6766 28.196C89.6766 28.5548 89.7306 28.9139 89.8197 29.3087L88.3311 29.5058C87.8463 29.3444 87.5412 28.9673 87.5412 28.3757C87.5412 26.8862 89.0838 26.1152 91.0761 26.1152C93.3723 26.1152 94.6278 26.9582 94.6278 29.0576V33.8114ZM81.3027 26.1689L77.8578 35.8031H76.9599L73.3359 26.1689L72.4212 33.5963C72.4032 33.722 72.3849 33.9731 72.3849 34.0268C72.3849 34.9061 72.7803 35.0855 74.0898 35.1749V35.8031H69.9453V35.1749C70.9686 35.1215 71.3448 34.9238 71.4342 34.0988L72.5472 25.1462C72.5472 24.1952 72.2058 23.8904 71.0217 23.8364V23.2082H75.0771C75.1119 23.621 75.2202 23.9078 75.3633 24.3026L78.2883 32.1251L81.0153 24.2852C81.1584 23.8904 81.2664 23.621 81.3027 23.2082H85.3029V23.8364C84.1545 23.8904 83.7963 24.1952 83.7963 25.1462L84.9084 34.0988C85.0155 34.9598 85.3929 35.1215 86.379 35.1749V35.8031H80.5488V35.1749C81.804 35.0855 82.2345 34.9061 82.2345 34.0268C82.2345 33.9731 82.2177 33.722 82.1997 33.5963L81.3027 26.1689ZM143.275 12.6983C143.275 14.8871 144.172 16.52 145.804 16.52C146.415 16.52 146.917 16.3226 147.33 15.9455V11.2091C147.33 9.80992 146.737 8.98492 145.661 8.98492C144.154 8.98492 143.275 10.4555 143.275 12.6983ZM146.25 5.05542V4.67862L149.426 3.81732H149.82V15.9634C149.82 16.5733 149.857 16.7713 150.538 16.8247L150.987 16.8607V17.3989L147.721 18.0445H147.255L147.327 16.3762C146.609 17.3989 145.694 18.0445 144.438 18.0445C142.267 18.0445 140.814 16.2865 140.814 13.5598C140.814 10.1686 142.823 8.21292 145.389 8.21292C146.215 8.21292 146.896 8.44632 147.327 8.84082V5.61102L146.25 5.05542ZM137.137 16.3409C137.137 17.0762 137.551 17.1836 138.663 17.2733V17.8655H133.531V17.2733C134.374 17.2196 134.662 17.1116 134.662 16.4837V10.133L133.585 9.50476V9.16396L136.797 8.17696H137.209L137.137 10.8323C137.999 8.87686 138.537 8.17696 139.596 8.17696C139.972 8.17696 140.241 8.30296 140.385 8.48236V10.4198H140.044C138.932 10.4198 138.052 10.4735 137.137 11.3885V16.3409ZM129.333 16.0355V12.6803L127.791 13.3085C127.037 13.5953 126.57 14.0084 126.57 15.0128C126.57 15.9455 127.002 16.6097 127.952 16.6097C128.472 16.6097 128.832 16.4117 129.333 16.0355ZM131.816 15.8741C131.816 16.4837 131.941 16.8782 132.408 16.8782C132.677 16.8782 132.928 16.7894 133.126 16.6991L133.234 17.0936C132.713 17.7041 132.031 18.0446 131.188 18.0446C130.219 18.0446 129.573 17.453 129.394 16.4657C128.82 17.2196 127.887 18.0089 126.595 18.0089C125.142 18.0089 124.173 17.1296 124.173 15.6947C124.173 14.1515 125.285 13.5236 126.631 13.0214L129.34 12.0347V10.5095C129.34 9.48676 128.999 8.75146 128.066 8.75146C127.205 8.75146 126.864 9.39736 126.864 10.2584C126.864 10.6172 126.918 10.976 127.008 11.3705L125.518 11.5682C125.034 11.4065 124.729 11.03 124.729 10.4375C124.729 8.94886 126.272 8.17696 128.263 8.17696C130.56 8.17696 131.816 9.02026 131.816 11.1197V15.8741ZM120.709 13.5235C120.709 10.8682 120.099 8.84085 118.664 8.84085C117.336 8.84085 116.727 10.3483 116.727 12.6982C116.727 15.3535 117.354 17.3989 118.79 17.3989C120.117 17.3989 120.709 15.874 120.709 13.5235ZM114.085 13.3265C114.085 10.2764 116.076 8.17696 118.75 8.17696C121.495 8.17696 123.361 10.079 123.361 12.9137C123.361 15.9635 121.369 18.0446 118.696 18.0446C115.951 18.0446 114.085 16.1786 114.085 13.3265ZM110.54 13.4162C110.54 11.2091 109.732 9.68423 108.046 9.68423C107.454 9.68423 106.88 9.93533 106.468 10.3124V15.3176C106.468 16.6811 107.005 17.381 108.1 17.381C109.625 17.381 110.54 15.623 110.54 13.4162ZM102.892 5.05542V4.67862L106.067 3.81732H106.463V9.86382C107.054 8.96682 108.041 8.17692 109.477 8.17692C111.665 8.17692 113.047 9.77352 113.047 12.5365C113.047 16.0534 110.875 18.0445 108.113 18.0445C106.534 18.0445 104.991 17.632 103.969 16.7893V5.61102L102.892 5.05542ZM99.503 16.3409C99.503 17.0762 99.9164 17.1836 101.029 17.2733V17.8655H95.8973V17.2733C96.74 17.2196 97.0274 17.1116 97.0274 16.4837V10.133L95.9513 9.50476V9.16396L99.1625 8.17696H99.575L99.503 10.8323C100.365 8.87686 100.903 8.17696 101.962 8.17696C102.338 8.17696 102.607 8.30296 102.751 8.48236V10.4198H102.41C101.298 10.4198 100.418 10.4735 99.503 11.3885V16.3409ZM91.6994 16.0355V12.6803L90.1568 13.3085C89.4029 13.5953 88.9364 14.0084 88.9364 15.0128C88.9364 15.9455 89.3678 16.6097 90.3179 16.6097C90.8384 16.6097 91.1981 16.4117 91.6994 16.0355ZM94.1758 15.8741C94.1758 16.4837 94.3009 16.8782 94.7674 16.8782C95.0365 16.8782 95.2879 16.7894 95.4853 16.6991L95.5933 17.0936C95.0728 17.7041 94.3909 18.0446 93.547 18.0446C92.5792 18.0446 91.9324 17.453 91.7533 16.4657C91.1797 17.2196 90.2464 18.0089 88.9543 18.0089C87.5017 18.0089 86.5324 17.1296 86.5324 15.6947C86.5324 14.1515 87.6448 13.5236 88.9903 13.0214L91.699 12.0347V10.5095C91.699 9.48676 91.3588 8.75146 90.4258 8.75146C89.5648 8.75146 89.2234 9.39736 89.2234 10.2584C89.2234 10.6172 89.2774 10.976 89.3674 11.3705L87.8779 11.5682C87.3934 11.4065 87.0892 11.03 87.0892 10.4375C87.0892 8.94886 88.6318 8.17696 90.6229 8.17696C92.9194 8.17696 94.1758 9.02026 94.1758 11.1197V15.8741ZM83.2712 8.35671H85.6037V9.18201H83.2712V15.1205C83.2712 16.2146 83.6837 16.6811 84.5264 16.6811C85.0292 16.6811 85.4246 16.52 85.8731 16.1786L86.0882 16.502C85.5137 17.399 84.6167 18.0446 83.3252 18.0446C81.8537 18.0446 80.7776 17.2733 80.7776 15.2636V9.18201H79.6652V8.76921C80.9027 8.21301 81.962 7.20861 82.7327 6.02421H83.2712V8.35671ZM70.4656 16.8607L70.3036 13.7929H71.0575C71.488 15.9277 72.6361 17.3269 74.4481 17.3269C75.9016 17.3269 76.8166 16.5379 76.8166 15.2995C76.8166 13.9723 76.0447 13.4161 73.8925 12.6268C71.7751 11.8909 70.4116 10.9219 70.4116 8.80511C70.4116 6.61631 72.0805 5.09111 74.5921 5.09111C76.0987 5.09111 77.4442 5.50391 78.3232 6.14981V8.82311H77.6593C77.3191 6.92171 76.2961 5.80871 74.5921 5.80871C73.3357 5.80871 72.547 6.58001 72.547 7.71041C72.547 8.96681 73.2286 9.48671 75.1477 10.1866C77.5525 11.0479 79.006 11.9806 79.006 14.2414C79.006 16.753 76.9426 18.0445 74.4481 18.0445C72.7441 18.0445 71.2726 17.5243 70.4656 16.8607V16.8607Z" fill="#1E4064"/>
<path fill-rule="evenodd" clip-rule="evenodd" d="M42.9765 17.0238C45.9594 19.9635 49.9005 21.5856 54.0933 21.5853L58.7151 21.5856L57.7362 19.1766H54.0933C50.544 19.1766 47.2077 17.805 44.6799 15.3204V15.3201C42.1941 12.7923 40.8231 9.45567 40.8231 5.90637V2.16087L38.4141 1.38747V5.90637C38.4141 10.0992 40.0362 14.0406 42.9765 17.0232V17.0238ZM54.0899 15.1734H55.9514L54.3539 12.7644H54.0899C52.2545 12.7644 50.5298 12.0615 49.2128 10.7901L49.2122 10.7898C47.9408 9.47252 47.2382 7.74782 47.2382 5.91242V5.64842L44.8292 4.05092V5.91242C44.8292 8.39102 45.7826 10.7211 47.5091 12.4935C49.2812 14.2197 51.6113 15.1734 54.0899 15.1734ZM17.021 17.0232L17.0213 17.0226C19.9613 14.0403 21.5837 10.0992 21.5834 5.90637L21.5837 1.38747L19.1741 2.16087V5.90637C19.1741 9.45507 17.8031 12.7923 15.3179 15.3195V15.3201C12.7898 17.805 9.45347 19.176 5.90417 19.176L2.26097 19.1766L1.28237 21.5856L5.90387 21.5853C10.0973 21.5853 14.0387 19.9635 17.021 17.0232ZM12.4903 12.4935C14.2171 10.7205 15.1708 8.39069 15.1702 5.91239V4.05029L12.7609 5.64839L12.7615 5.91239C12.7615 7.74779 12.0589 9.47219 10.7875 10.7898H10.7869C9.46959 12.0615 7.74519 12.7644 5.90949 12.7644H5.64609L4.04799 15.1728L5.90919 15.1734C8.38779 15.1728 10.7182 14.2194 12.4903 12.4935ZM46.4555 33.3738C44.6528 32.877 42.9086 32.2047 41.2424 31.3653C39.2117 32.5113 37.3196 33.9309 35.6201 35.6178C33.9329 37.3176 32.513 39.2106 31.3661 41.2419C32.204 42.9087 32.8787 44.652 33.3755 46.4538C34.4615 43.4871 36.1604 40.7562 38.4488 38.4465C40.7582 36.159 43.4885 34.4595 46.4555 33.3738ZM30.0019 38.8483C31.1134 37.087 32.4133 35.428 33.9172 33.9145C35.4265 32.4154 37.0774 31.1116 38.8333 29.9998C37.0774 28.8886 35.4265 27.5848 33.9172 26.0857C32.4139 24.5722 31.1134 22.9132 30.0022 21.1519C28.8907 22.9132 27.5908 24.5722 26.0872 26.0857C24.5779 27.5848 22.9267 28.8886 21.1708 29.9998C22.9267 31.1116 24.5779 32.4151 26.0872 33.9145C27.5902 35.428 28.8907 37.087 30.0019 38.8483ZM28.6357 41.2419C27.4894 39.2106 26.0692 37.3176 24.382 35.6178C22.6828 33.9309 20.7901 32.5113 18.76 31.3653C17.0932 32.2047 15.3493 32.877 13.5469 33.3732C16.513 34.4595 19.2439 36.1584 21.5536 38.4465C23.8414 40.7559 25.5403 43.4871 26.6263 46.4538C27.1231 44.652 27.7978 42.9087 28.6357 41.2419ZM18.76 28.6349C20.7907 27.4886 22.6828 26.069 24.382 24.3821C26.0692 22.6823 27.4894 20.7893 28.6357 18.758C27.7981 17.0912 27.1234 15.3479 26.6269 13.5461C25.5409 16.5128 23.842 19.2437 21.5536 21.5534C19.2439 23.8409 16.5136 25.5398 13.5469 26.6261C15.3493 27.1229 17.0932 27.7949 18.76 28.6349ZM31.3661 18.758C32.5124 20.7893 33.9323 22.6823 35.6195 24.3821C37.319 26.069 39.2111 27.4886 41.2418 28.6349C42.908 27.7952 44.6522 27.1229 46.4549 26.6267C43.4885 25.5404 40.7576 23.8409 38.4482 21.5534C36.1601 19.244 34.4615 16.5128 33.3752 13.5461C32.8787 15.3479 32.204 17.0912 31.3661 18.758ZM54.099 32.0019C54.0996 32.0019 60.0009 32.0019 60.0009 32.0019L59.7957 34.4109H54.1011C48.837 34.4109 43.8897 36.4506 40.1502 40.1496C36.4512 43.8888 34.4112 48.837 34.4112 54.1008V59.7948L32.0025 60L32.0019 54.1062C32.0019 50.5878 31.3122 47.1768 30.0003 44.0238C28.6887 47.1768 27.9993 50.5878 27.9987 54.1062V60L25.59 59.7948L25.5894 54.1002C25.5894 48.8364 23.55 43.8888 19.8504 40.1496C16.1124 36.4518 11.1666 34.4121 5.9049 34.4103C5.9013 34.4103 0.2052 34.4109 0.2052 34.4109L0 32.0019L5.8944 32.0013C9.4125 32.0013 12.8238 31.3116 15.9771 29.9997C12.8262 28.689 9.4173 27.999 5.9013 27.9981H0L0.2052 25.5891H5.8998C11.1639 25.5891 16.1115 23.5494 19.8507 19.8504C23.55 16.1112 25.59 11.163 25.59 5.8992V0.2052L27.9987 0L27.9993 5.8938C27.9993 9.4122 28.6887 12.8232 30.0006 15.9762C31.3125 12.8232 32.0025 9.4116 32.0025 5.8938V0L34.4112 0.2052L34.4115 5.8998C34.4115 11.1636 36.4512 16.1112 40.1505 19.8504C43.8888 23.5482 48.8346 25.5879 54.0963 25.5897C54.1002 25.5897 59.7957 25.5891 59.7957 25.5891L60.0009 27.9981L54.1065 27.9987C50.5884 27.9981 47.1771 28.6878 44.0238 29.9997C47.1747 31.311 50.5839 32.001 54.099 32.0019ZM17.021 42.9762C14.0381 40.0359 10.097 38.4144 5.90387 38.4144H1.28237L2.26097 40.8234H5.90387C9.45317 40.8234 12.7898 42.195 15.3176 44.6796V44.6799C17.8031 47.2077 19.1741 50.5443 19.1741 54.093V57.7365L21.5834 58.7151V54.0936C21.5834 49.9002 19.961 45.9594 17.021 42.9768V42.9762ZM5.90949 44.8267H4.04799L5.64579 47.2357H5.90949C7.74489 47.2357 9.46989 47.9386 10.7866 49.21L10.7872 49.2106C12.0586 50.5276 12.7612 52.2517 12.7612 54.0871V54.3517L15.1705 55.9492V54.0877C15.1705 51.6091 14.2168 49.279 12.4906 47.5066C10.7182 45.7804 8.38809 44.8267 5.90949 44.8267ZM42.9759 42.9768V42.9774C40.0359 45.9594 38.4135 49.9008 38.4141 54.0936V58.7151L40.8231 57.7365L40.8228 54.0936C40.8228 50.5443 42.1941 47.2077 44.6793 44.6805L44.6799 44.6799C47.2077 42.195 50.5437 40.824 54.093 40.824L57.7362 40.8234L58.7151 38.4144H54.0933C49.8999 38.4144 45.9588 40.0365 42.9759 42.9768ZM54.0899 44.8267L55.9511 44.8273L54.3539 47.2357H54.0896C52.2542 47.2357 50.5298 47.9386 49.2122 49.2106H49.2119C47.9405 50.5279 47.2376 52.2523 47.2376 54.0877L47.2382 54.3517L44.8292 55.9498V54.0877C44.8286 51.6094 45.7826 49.279 47.5091 47.5066C49.2809 45.7807 51.611 44.8267 54.0899 44.8267V44.8267Z" fill="#1E4064"/>
</svg>
