<svg width="154" height="50" viewBox="0 0 154 50" fill="none" xmlns="http://www.w3.org/2000/svg">
<path d="M9.11403 38.5826L12.1978 38.3805L17.7085 4.32724L14.7648 4.52018L11.8367 24.2798L10.9763 30.4833L10.8829 30.4895L11.1671 4.75599L8.6907 4.9183L4.7153 30.8937L4.62186 30.8998L4.73464 24.7453L5.09294 5.15411L2.19604 5.34398L2.19885 39.0359L5.42282 38.8246L9.26338 13.6557L9.35683 13.6496L9.11403 38.5826Z" fill="white"/>
<path d="M22.0616 36.3732L21.9636 37.7404L24.767 37.5567L26.3953 15.8645C26.5885 13.0833 24.8957 11.5988 22.2791 11.7703C19.756 11.9356 18.0846 13.6406 17.8915 16.4219L17.5436 21.1372L20.1602 20.9657L20.4797 16.5338C20.584 15.26 21.186 14.4228 22.1672 14.3585C23.1484 14.2942 23.6616 14.9644 23.5199 16.3814L23.254 20.1998L19.2754 23.933C17.6822 25.3983 16.9613 26.5717 16.8066 28.5058L16.4203 34.0682C16.2242 36.8027 17.4995 38.3615 19.4619 38.2329C20.7234 38.1502 21.7024 37.3352 22.0616 36.3732ZM20.5489 35.4869C19.5209 35.5543 19.0545 34.881 19.1403 33.3268L19.5288 28.515C19.6208 27.0543 19.9548 26.4224 21.0585 25.3647L23.0386 23.3579L22.3176 33.1186C22.1758 34.5356 21.5301 35.4226 20.5489 35.4869Z" fill="white"/>
<path d="M29.5869 39.1647C29.1954 41.0674 28.8676 41.7927 27.7462 41.8662L26.6248 41.9397L26.4631 44.4843L27.8648 44.3924C30.2945 44.2331 31.4266 42.892 32.0686 39.7998L38.2554 11.0516L35.4053 11.2384L31.5258 32.2335L31.4323 32.2396L30.9197 11.5324L28.1163 11.7162L29.5869 39.1647Z" fill="white"/>
<path d="M46.0418 36.1749L48.7985 35.9942L53.808 10.0448L51.1447 10.2194L47.7585 30.1498L47.6183 30.159L47.5002 10.4583L45.1173 10.6144L41.5442 30.5571L41.4507 30.5632L41.4728 10.8533L38.7628 11.0309L39.4537 36.6067L42.3038 36.4199L45.7735 17.0471L45.867 17.0409L46.0418 36.1749Z" fill="white"/>
<path d="M59.0014 33.9646L58.9033 35.3319L61.7068 35.1481L63.3351 13.4559C63.5282 10.6747 61.8355 9.1902 59.2189 9.36169C56.6958 9.52707 55.0244 11.2321 54.8313 14.0133L54.4834 18.7286L57.1 18.5571L57.4195 14.1252C57.5238 12.8514 58.1258 12.0142 59.107 11.9499C60.0882 11.8856 60.6014 12.5558 60.4597 13.9729L60.1938 17.7912L56.2152 21.5244C54.622 22.9897 53.9011 24.1631 53.7464 26.0972L53.3601 31.6596C53.164 34.3941 54.4393 35.9529 56.4017 35.8243C57.6632 35.7416 58.6422 34.9267 59.0014 33.9646ZM57.4887 33.0783C56.4607 33.1457 55.9943 32.4724 56.0801 30.9183L56.4686 26.1065C56.5606 24.6458 56.8946 24.0138 57.9983 22.9561L59.9784 20.9493L59.2574 30.71C59.1156 32.1271 58.4699 33.014 57.4887 33.0783Z" fill="white"/>
<path d="M72.7185 11.7147L72.9492 8.79024C72.616 8.71823 72.3326 8.68988 72.0522 8.70825C70.7907 8.79094 69.6716 9.61509 69.1874 10.8199L69.3514 9.02605L66.548 9.2098L64.6223 34.957L67.4258 34.7733L68.9093 14.4514C69.0388 12.8475 70.1893 11.7866 71.6845 11.6886C72.0583 11.6641 72.3884 11.6894 72.7185 11.7147Z" fill="white"/>
<path d="M74.0421 12.5665L72.7294 30.484C72.5647 32.9818 73.9426 34.6746 75.905 34.546C77.1666 34.4633 78.1486 33.6951 78.5545 32.73L78.4067 34.0535L81.2101 33.8698L83.7304 0.0125137L80.927 0.196262L80.2312 9.62685C79.8429 8.7138 78.8624 8.07419 77.5542 8.15994C75.545 8.29163 74.2474 9.97212 74.0421 12.5665ZM75.5834 29.6399L76.798 13.0897C76.9367 11.6259 77.4484 10.8416 78.4296 10.7773C79.4575 10.7099 80.1201 11.5111 80.025 12.9251L78.7607 29.4317C78.6657 30.8457 78.0667 31.7296 77.0387 31.797C76.0108 31.8643 75.4884 31.0539 75.5834 29.6399Z" fill="white"/>
<path d="M84.4195 27.3178L91.3814 26.8615L91.5623 23.8933L84.6471 24.3466L84.4195 27.3178Z" fill="white"/>
<path d="M92.9485 47.4664L150.264 43.7021L150.093 46.2428L92.7823 50L92.9485 47.4664Z" fill="white"/>
<path d="M99.0896 26.3397C100.725 26.2325 101.291 26.9931 101.168 28.6905L100.447 38.4512C100.364 40.0521 100.318 41.5097 100.616 42.4756L103.607 42.2796C103.259 41.27 103.304 39.8124 103.39 38.2583L104.123 28.6844C104.263 26.5168 103.585 25.4819 102.1 25.0162C103.745 24.3452 104.585 22.8355 104.743 20.9482L105.271 13.2648C105.505 10.387 103.791 8.57545 100.894 8.76532L95.7543 9.10219L93.234 42.9595L96.1776 42.7665L97.4075 26.4499L99.0896 26.3397ZM102.34 13.6446L101.764 21.3311C101.673 22.7918 100.84 23.691 99.5783 23.7737L97.6159 23.9023L98.4956 11.5503L100.505 11.4186C101.766 11.3359 102.429 12.1372 102.34 13.6446Z" fill="white"/>
<path d="M108.129 12.7959L110.933 12.6122L111.27 8.46061L108.467 8.64436L108.129 12.7959ZM110.698 16.1938L107.895 16.3776L105.969 42.1248L108.772 41.941L110.698 16.1938Z" fill="white"/>
<path d="M113.244 19.8748L111.931 37.7923C111.767 40.2901 113.145 41.9829 115.107 41.8543C116.369 41.7716 117.351 41.0034 117.757 40.0383L117.609 41.3619L120.412 41.1781L122.932 7.32084L120.129 7.50459L119.433 16.9352C119.045 16.0221 118.064 15.3825 116.756 15.4683C114.747 15.6 113.449 17.2804 113.244 19.8748ZM114.785 36.9483L116 20.398C116.139 18.9343 116.65 18.1499 117.632 18.0856C118.66 18.0182 119.322 18.8195 119.227 20.2334L117.963 36.74C117.868 38.154 117.269 39.0379 116.241 39.1053C115.213 39.1727 114.69 38.3622 114.785 36.9483Z" fill="white"/>
<path d="M132.117 36.3754L132.481 31.1898L129.817 31.3644L129.476 36.1731C129.381 37.5871 128.822 38.3745 127.841 38.4388C126.907 38.5001 126.3 37.8359 126.395 36.422L127.081 27.5551L132.781 27.1815L133.41 18.8815C133.588 15.8666 131.948 14.4725 129.472 14.6348C126.949 14.8002 125.087 16.4707 124.894 19.252L123.569 36.9826C123.373 39.7171 125.253 41.1893 127.682 41.0301C130.159 40.8678 131.88 39.2064 132.117 36.3754ZM127.675 19.4451C127.77 18.0311 128.379 17.2874 129.36 17.223C130.294 17.1618 130.851 17.7823 130.756 19.1962L130.332 24.9019L127.249 25.104L127.675 19.4451Z" fill="white"/>
<path d="M142.6 17.0122L142.83 14.0877C142.497 14.0157 142.214 13.9874 141.933 14.0058C140.672 14.0884 139.553 14.9126 139.069 16.1175L139.233 14.3236L136.429 14.5073L134.504 40.2545L137.307 40.0708L138.791 19.7489C138.92 18.145 140.071 17.0841 141.566 16.9861C141.939 16.9616 142.27 16.9869 142.6 17.0122Z" fill="white"/>
<path d="M150.842 34.7258L151.079 31.1909C151.228 29.1633 150.895 28.3874 149.776 27.0531L147.122 23.8014C146.208 22.7352 146.121 22.1308 146.229 20.9038L146.465 18.0727C146.557 16.612 147.028 15.9242 147.963 15.863C148.991 15.7956 149.554 16.5095 149.412 17.9265L149.049 22.4082L151.712 22.2336L152.054 17.4249C152.297 14.6873 150.56 13.2526 147.991 13.4211C145.327 13.5956 143.796 15.2914 143.627 18.4464L143.403 21.4644C143.292 23.3486 143.929 24.48 144.741 25.4122L147.541 28.7481C148.253 29.593 148.442 30.3314 148.347 31.7453L148.097 35.0934C148.002 36.5074 147.487 37.245 146.506 37.3093C145.525 37.3736 144.915 36.6628 145.01 35.2488L145.346 30.3466L142.729 30.5181L142.359 35.6102C142.166 38.3915 143.912 39.9663 146.528 39.7948C149.192 39.6203 150.676 37.9275 150.842 34.7258Z" fill="white"/>
<path fill-rule="evenodd" clip-rule="evenodd" d="M23.6698 42.1322L2.19141 43.5476L2.19142 46.0677L23.5035 44.6681L23.6698 42.1322Z" fill="white"/>
<path fill-rule="evenodd" clip-rule="evenodd" d="M34.3419 41.4431L34.1758 43.9778L80.5461 40.9427L80.7209 38.4019L34.3419 41.4431Z" fill="white"/>
</svg>
